<?xml version="1.0" encoding="utf-8" ?><svg xmlns="http://www.w3.org/2000/svg" xmlns:xlink="http://www.w3.org/1999/xlink" width="512" height="512" viewBox="0 0 512 512"><path fill="#4C1D95" d="M234.151 133.638L329.735 133.622C363.585 133.604 364.886 144.352 364.887 177.175L364.875 208.29L385.719 208.273C396.417 208.223 409.973 207.4 409.792 223.312C409.689 232.323 409.748 241.129 409.747 250.022L409.765 339.117C409.798 362.487 409.262 365.883 385.138 365.85L364.875 365.839L364.876 419.679C364.877 425.863 365.597 438.316 364.45 443.507C360.004 463.617 339.145 460.99 323.605 460.986L278.375 460.994L179.001 461.004C174.653 461.004 169.349 461.234 165.149 460.503C149.433 457.767 147.242 443.337 147.237 430.634L147.243 365.839C132.99 365.316 102.456 372.188 102.382 350.264L102.492 234.269C102.488 213.277 102.314 208.191 124.547 208.276L147.243 208.29L147.079 156.229C146.878 131.481 171.969 133.63 188.72 133.629L234.151 133.638Z"/><path fill="white" d="M116.717 215.895C118.812 215.702 123.886 215.871 126.21 215.875L390.727 215.905C400.521 215.987 402.057 217.569 402.127 227.665L402.151 328.778C402.16 337.008 405.265 355.287 396.536 358.196C394.042 358.401 389.322 358.213 386.604 358.209L182.562 358.196C160.845 358.198 139.087 358.385 117.386 357.999C107.758 357.828 110.189 346.298 110.2 339.83L110.223 254.552C110.224 244.523 110.121 234.484 110.285 224.459C110.365 219.587 111.722 216.802 116.717 215.895Z"/><path fill="#4C1D95" d="M179.029 244.718C181.374 244.2 213.419 262.657 216.44 265.505C216.685 269.593 216.687 310.503 216.091 311.989C215.411 313.682 185.243 331.74 180.895 333.545C177.256 334.482 144.149 313.48 143.641 311.945C142.855 309.564 142.405 266.672 143.874 264.333C145.391 261.918 173.105 246.412 179.029 244.718Z"/><path fill="#FCC242" d="M179.029 252.311C184.396 254.541 205.112 266.757 209.091 269.659L209.091 280.641C198.23 277.817 194.963 273.376 180.895 273.235C169.834 272.287 160.276 276.082 150.597 280.641L150.597 268.733C159.444 262.382 170.108 258.635 179.029 252.311Z"/><path fill="#FCC242" d="M176.014 280.641C186.629 279.013 200.161 284.411 209.091 289.773C209.221 294.143 209.116 299.217 209.091 303.615C198.509 298.652 196.768 297.221 184.685 295.224C170.007 294.512 163.27 297.092 150.597 302.526C150.686 298.393 150.598 293.932 150.597 289.773C157.651 284.751 167.41 281.323 176.014 280.641Z"/><path fill="#FCC242" d="M178.16 302.526C186.585 301.793 198.55 306.08 205.734 310.266C197.52 315.566 189.234 319.957 180.895 325.495L180.407 325.724C179.405 325.657 157.143 311.938 153.508 310.266C160.124 305.685 170.127 302.698 178.16 302.526Z"/><path fill="#4C1D95" d="M249.061 275.003L342.447 275.024C348.164 275.059 349.711 281.927 344.144 282.783C341.418 283.028 335.786 282.806 332.826 282.793L250.689 282.829C243.028 282.411 244.671 275.987 249.061 275.003Z"/><path fill="#4C1D95" d="M338.767 244.718C352.263 243.87 347.64 252.245 343.725 252.339C341.103 252.401 338.467 252.319 335.84 252.318L254.112 252.311C240.911 253.103 245.609 244.706 249.156 244.682L338.767 244.718Z"/><path fill="#4C1D95" d="M250.001 305.19C280.692 304.875 311.472 305.462 342.169 305.183C349.485 305.116 348.499 311.69 344.144 312.747L250.343 312.773C244.087 312.735 243.271 305.601 250.001 305.19Z"/><path fill="#10B981" d="M154.748 365.839L191.796 365.839L191.783 386.381C191.738 393.954 190.081 404.626 201.555 404.784L297.495 404.741C308.172 404.769 320.006 407.062 319.935 391.948C319.894 383.22 319.796 374.519 319.876 365.839L357.087 365.839L357.087 414.875C357.101 420.774 357.078 426.695 357.109 432.608C357.691 455.047 344.988 453.463 327.242 453.462L175.993 453.479C150.41 453.524 154.748 436.662 154.748 416.218L154.748 365.839Z"/><path fill="#10B981" d="M269.719 141.675L332.956 141.651C340.797 141.629 346.213 140.665 352.324 146.692C358.942 153.219 357.097 168.553 357.099 177.093L357.087 208.29C345.072 208.286 332.702 208.462 320.72 208.29L320.741 188.421C320.759 161.362 312.95 165.84 290.579 165.839L242.375 165.831L217.537 165.818C194.193 165.815 191.767 166.801 191.779 190.582L191.796 208.29L154.748 208.29L154.731 172.115C154.732 149.007 152.757 141.636 178.186 141.661L269.719 141.675Z"/><path fill="white" d="M204.687 173.457L296.12 173.442C313.959 173.429 313.282 171.94 313.28 188.522L313.262 208.29C311.482 208.326 309.601 208.293 307.812 208.29L199.247 208.29L199.232 188.025C199.228 182.364 197.35 174.84 204.687 173.457Z"/><path fill="white" d="M199.247 365.839L312.271 365.839L312.288 387.593C312.3 389.68 312.678 395.428 312.271 396.949C310.511 397.318 304.628 396.968 302.335 396.956L227.933 396.957C220.858 396.957 206.457 397.346 199.932 396.542C198.701 395.296 199.23 387.134 199.235 384.977L199.247 365.839Z"/><path fill="#4C1D95" d="M252.884 47.0257C279.994 44.8832 309.69 57.1316 329.877 74.4478C343.074 85.7675 333.946 88.5452 330.381 85.4357C311.39 67.1409 285.615 54.8879 258.937 54.7333C233.9 53.1049 206.031 63.6501 187.402 80.2408C184.933 82.4401 179.547 89.1976 176.166 86.0274C173.803 83.8112 175.28 80.9278 177.224 78.9837C196.924 59.2776 225.009 47.3107 252.884 47.0257Z"/><path fill="#4C1D95" d="M252.046 72.4202C275.463 71.0163 299.164 80.2972 316.135 96.2069C321.599 100.95 316.899 107.417 310.66 101.682C297.152 89.2665 278.757 80.6195 260.063 80.2362C240.762 79.3416 223.195 84.431 207.57 96.1714C205.408 97.7956 198.098 106.755 195.073 103.85C190.815 99.6497 195.018 96.8246 198.06 94.0656C213.295 80.2481 231.749 73.5868 252.046 72.4202Z"/><path fill="#4C1D95" d="M252.884 96.7595C269.952 96.5459 287.302 101.656 299.257 114.5C301.028 116.402 300.676 118.115 298.862 119.732C295.08 123.104 291.65 117.076 288.709 115.308C279.991 109.04 270.689 105.745 260.063 104.52C246.87 103.966 234.718 106.873 223.863 114.735C221.432 116.36 218.859 119.491 216.212 120.559C212.793 121.938 209.685 116.966 212.307 114.309C223.448 103.02 237.454 98.149 252.884 96.7595Z"/></svg>
